<svg width="100%" height="100%" viewBox="0 0 155 53" fill="currentColor" xmlns="http://www.w3.org/2000/svg">

<path d="M39.1211 0H8.01226C3.58712 0 0 3.59774 0 8.03597V39.2343C0 43.6725 3.58712 47.2703 8.01226 47.2703H39.1185C43.5437 47.2703 47.1334 43.6725 47.1334 39.2343V8.03597C47.1334 3.59774 43.5462 0 39.1185 0M24.6449 36.1516C28.7685 36.1516 32.6214 34.1093 34.954 30.691L40.8074 34.7089C37.1538 40.0671 31.1114 43.2677 24.6449 43.2677C13.8528 43.2677 5.07409 34.4629 5.07409 23.639C5.07409 12.815 13.8528 4.00774 24.6449 4.00774C32.0158 4.00774 38.6893 8.09491 42.0618 14.6779L35.7537 17.9298C33.6025 13.7324 29.3459 11.1238 24.6449 11.1238C17.7644 11.1238 12.1666 16.7382 12.1666 23.639C12.1666 30.5398 17.7644 36.1542 24.6449 36.1542"></path>
<path class="logo-accent" d="M36.2571 24.2514C36.2571 23.3136 36.6122 22.491 37.3225 21.7838C38.0328 21.0765 38.8606 20.7229 39.8084 20.7229C40.7563 20.7229 41.5611 21.0765 42.2586 21.7838C42.9587 22.491 43.3061 23.3136 43.3061 24.2514C43.3061 25.1893 42.9561 26.0478 42.2586 26.755C41.5611 27.4623 40.7435 27.8159 39.8084 27.8159C38.8733 27.8159 38.0328 27.4623 37.3225 26.755C36.6122 26.0478 36.2571 25.2149 36.2571 24.2514Z"></path>
<path d="M53.1272 14.9368C53.1272 12.8304 53.8068 11.0956 55.166 9.72724C56.5253 8.35887 58.2907 7.67468 60.465 7.67468C61.6121 7.67468 62.6596 7.90274 63.6075 8.35631C64.5554 8.80987 65.3474 9.45561 65.9862 10.291L63.3086 12.5178C62.468 11.6004 61.4869 11.1392 60.3679 11.1392C59.3868 11.1392 58.5666 11.4928 57.9049 12.1975C57.2432 12.9022 56.9136 13.817 56.9136 14.9393C56.9136 16.0617 57.2432 16.9893 57.8973 17.694C58.5539 18.3987 59.3714 18.7523 60.3525 18.7523C61.4895 18.7523 62.4885 18.2834 63.3495 17.3481L65.9989 19.6159C65.3525 20.4513 64.5554 21.0919 63.6075 21.5429C62.6596 21.9939 61.6121 22.2168 60.465 22.2168C58.2907 22.2168 56.5253 21.5326 55.166 20.1643C53.8068 18.7959 53.1272 17.056 53.1272 14.9393"></path>
<path d="M70.9325 3.29028H67.2151V21.8504H70.9325V3.29028Z"></path>
<path d="M72.5371 14.9368C72.5371 13.9067 72.7236 12.9457 73.0992 12.0489C73.4748 11.1545 73.9883 10.3858 74.6398 9.74517C75.2913 9.10455 76.0782 8.59974 77.0006 8.22818C77.9203 7.85662 78.9091 7.67212 79.9643 7.67212C82.1079 7.67212 83.8861 8.36399 85.299 9.74517C86.7119 11.1264 87.4196 12.856 87.4196 14.9342C87.4196 17.0124 86.7119 18.7446 85.299 20.1309C83.8861 21.5173 82.1053 22.2117 79.9643 22.2117C78.5565 22.2117 77.2867 21.8965 76.1523 21.2661C75.0179 20.6358 74.1314 19.7645 73.4926 18.6575C72.8539 17.5505 72.5345 16.3077 72.5345 14.9368M77.3557 12.2026C76.6684 12.9124 76.3235 13.8247 76.3235 14.9368C76.3235 16.0489 76.6684 16.9637 77.3557 17.6786C78.043 18.3936 78.9142 18.7498 79.9643 18.7498C81.0144 18.7498 81.8907 18.3936 82.5882 17.6786C83.2857 16.9637 83.6332 16.0515 83.6332 14.9368C83.6332 13.8221 83.2857 12.9124 82.5882 12.2026C81.8907 11.4928 81.0169 11.1392 79.9643 11.1392C78.9117 11.1392 78.0404 11.4954 77.3557 12.2026Z"></path>
<path d="M87.9535 20.5845L89.4098 17.7658C90.769 18.6626 92.3301 19.1111 94.093 19.1111C95.8559 19.1111 96.6403 18.6806 96.6403 17.8196C96.6403 17.4865 96.4589 17.22 96.0986 17.0201C95.7384 16.8228 95.1558 16.6665 94.351 16.5563L93.2396 16.4C90.0715 15.9567 88.4849 14.5678 88.4849 12.2334C88.4849 10.8086 88.9985 9.69393 90.023 8.89187C91.0475 8.08981 92.4655 7.69006 94.2769 7.69006C96.3592 7.69006 98.2907 8.12825 100.066 9.00975L98.8094 11.9156C98.186 11.6107 97.4783 11.3493 96.6837 11.1315C95.8891 10.9137 95.1303 10.8009 94.4047 10.7907C93.7174 10.7907 93.1885 10.9111 92.8232 11.1546C92.4553 11.398 92.2739 11.7311 92.2739 12.1539C92.2739 12.5485 92.4578 12.8304 92.8283 13.0021C93.1988 13.1738 93.7506 13.3199 94.4916 13.4403L95.7103 13.6299C98.8068 14.1117 100.381 15.4108 100.429 17.53C100.429 18.9676 99.8671 20.1053 98.7404 20.9484C97.6162 21.7914 96.0577 22.2117 94.0674 22.2117C91.5278 22.2117 89.489 21.6685 87.956 20.5845"></path>
<path d="M101.004 14.9778C101.004 12.8074 101.648 11.0469 102.938 9.69905C104.228 8.34862 105.904 7.67468 107.966 7.67468C110.028 7.67468 111.553 8.34606 112.787 9.68368C114.022 11.0239 114.645 12.7689 114.653 14.9214C114.653 15.4032 114.63 15.8208 114.584 16.1745H104.819C105.013 17.1303 105.422 17.8478 106.045 18.3244C106.668 18.801 107.44 19.0419 108.355 19.0419C109.622 19.0419 110.782 18.6011 111.837 17.7196L114.014 20.113C112.478 21.5147 110.524 22.2143 108.145 22.2143C106.027 22.2143 104.308 21.548 102.984 20.2181C101.661 18.8881 101.002 17.1405 101.002 14.9803M104.834 13.6427H110.938C110.761 12.7382 110.417 12.0463 109.906 11.5671C109.392 11.0879 108.738 10.847 107.943 10.847C107.082 10.847 106.392 11.093 105.869 11.5825C105.348 12.0719 105.003 12.7587 104.837 13.6453"></path>
<path d="M53.5208 36.5283V33.2304H56.6582V29.1252H60.3756V33.2304H65.3552V36.5283H60.3756V41.5789C60.3756 42.3964 60.5621 42.9909 60.9377 43.3676C61.3133 43.7443 61.809 43.9313 62.4298 43.9313C63.1784 43.9313 64.0445 43.6289 65.0231 43.0268L66.3823 45.9352C64.949 46.9089 63.4288 47.3958 61.8192 47.3958C60.1176 47.3958 58.8325 46.9269 57.9638 45.9839C57.0951 45.0434 56.6608 43.6725 56.6608 41.8711V36.5283H53.5233H53.5208Z"></path>
<path d="M67.1973 47.0319V28.4308H70.9147V34.691C71.8012 33.4661 73.1145 32.8562 74.8544 32.8562C76.4308 32.8562 77.7185 33.3559 78.72 34.3527C79.7215 35.3495 80.2223 36.6461 80.2223 38.24V47.0319H76.5049V39.4162C76.5049 38.4219 76.2698 37.6558 75.7972 37.1228C75.3245 36.5872 74.6653 36.3207 73.8145 36.3207C72.9637 36.3207 72.279 36.5898 71.7348 37.1304C71.1881 37.6686 70.9172 38.4399 70.9172 39.4444V47.0319H67.1998H67.1973Z"></path>
<path d="M81.7143 40.1593C81.7143 37.9889 82.3582 36.2284 83.6484 34.8806C84.9387 33.5301 86.6147 32.8562 88.6765 32.8562C90.7384 32.8562 92.2637 33.5276 93.4977 34.8652C94.7317 36.2054 95.3551 37.953 95.3628 40.1029C95.3628 40.5847 95.3398 41.0024 95.2938 41.3534H85.5289C85.723 42.3092 86.1318 43.0267 86.7552 43.5034C87.3786 43.98 88.1502 44.2208 89.0649 44.2208C90.3321 44.2208 91.4921 43.7801 92.5473 42.8986L94.7241 45.292C93.1885 46.6937 91.234 47.3932 88.8554 47.3932C86.7373 47.3932 85.0179 46.727 83.6944 45.397C82.371 44.0671 81.7118 42.3195 81.7118 40.1593M85.5442 38.8217H91.6479C91.4716 37.9171 91.1267 37.2252 90.6157 36.7461C90.1022 36.2669 89.4481 36.026 88.6535 36.026C87.7925 36.026 87.1027 36.272 86.5789 36.7614C86.0577 37.2509 85.7128 37.9376 85.5467 38.8242"></path>
<path d="M102.225 42.8064C101.878 41.9197 101.707 40.9639 101.707 39.9389C101.707 38.9139 101.88 37.953 102.225 37.0561C102.573 36.1593 103.035 35.4084 103.618 34.8011C104.2 34.1938 104.875 33.7198 105.641 33.3738C106.408 33.0279 107.207 32.8562 108.038 32.8562C109.854 32.8562 111.277 33.4994 112.305 34.7832V33.2329H115.938V45.8942C115.938 48.1005 115.268 49.8378 113.932 51.1037C112.593 52.3696 110.782 53.0025 108.495 53.0025C107.376 53.0025 106.285 52.859 105.217 52.5694C104.149 52.2824 103.237 51.8673 102.481 51.3292L103.794 48.2926C105.209 49.2331 106.725 49.7046 108.344 49.7046C109.53 49.7046 110.483 49.3843 111.201 48.7462C111.919 48.1056 112.279 47.2113 112.279 46.0582V45.1049C111.26 46.3349 109.847 46.9499 108.04 46.9499C107.21 46.9499 106.41 46.7782 105.644 46.4374C104.877 46.0966 104.203 45.6277 103.62 45.0306C103.038 44.4361 102.575 43.693 102.228 42.8064M105.493 39.9082C105.493 40.9178 105.812 41.766 106.451 42.4527C107.09 43.1395 107.928 43.4829 108.968 43.4829C110.008 43.4829 110.818 43.1446 111.461 42.4655C112.105 41.7865 112.427 40.9357 112.427 39.9082C112.427 38.8806 112.105 38.0273 111.461 37.3431C110.818 36.6589 109.985 36.3181 108.968 36.3181C107.951 36.3181 107.09 36.6615 106.451 37.3508C105.812 38.0376 105.493 38.8909 105.493 39.9082Z"></path>
<path d="M119.463 45.3073C118.191 43.9159 117.557 42.1862 117.557 40.1183C117.557 38.0504 118.194 36.3233 119.463 34.9369C120.736 33.5506 122.32 32.8562 124.216 32.8562C125.935 32.8562 127.31 33.4866 128.337 34.7473V33.2303H131.97V47.0319H128.337V45.5021C127.32 46.7628 125.945 47.3932 124.216 47.3932C122.32 47.3932 120.736 46.6988 119.463 45.3073ZM122.322 37.4046C121.671 38.1272 121.344 39.0318 121.344 40.1183C121.344 41.2048 121.671 42.1094 122.322 42.8371C122.974 43.5648 123.832 43.9287 124.895 43.9287C125.958 43.9287 126.806 43.57 127.463 42.8499C128.12 42.1324 128.447 41.2202 128.447 40.1157C128.447 39.0113 128.117 38.1042 127.463 37.3892C126.806 36.6743 125.95 36.3181 124.895 36.3181C123.84 36.3181 122.974 36.6794 122.322 37.4021"></path>
<path d="M134.42 52.736V33.2303H138.053V34.7473C139.06 33.4866 140.424 32.8562 142.151 32.8562C144.047 32.8562 145.629 33.5506 146.898 34.9369C148.168 36.3233 148.802 38.0504 148.802 40.1183C148.802 42.1862 148.168 43.9159 146.898 45.3073C145.629 46.6988 144.05 47.3932 142.164 47.3932C140.483 47.3932 139.142 46.7962 138.135 45.5995V52.736H134.417H134.42ZM138.924 37.3892C138.268 38.1042 137.941 39.0113 137.941 40.1157C137.941 41.2202 138.268 42.1299 138.924 42.8499C139.578 43.57 140.429 43.9287 141.472 43.9287C142.514 43.9287 143.401 43.5648 144.047 42.8371C144.693 42.1094 145.015 41.2022 145.015 40.1183C145.015 39.0344 144.691 38.1298 144.047 37.4046C143.401 36.682 142.542 36.3181 141.472 36.3181C140.401 36.3181 139.578 36.6743 138.924 37.3892Z"></path>
<path d="M149.492 44.6104C149.492 43.8775 149.77 43.2343 150.324 42.6834C150.879 42.1325 151.525 41.8557 152.266 41.8557C153.007 41.8557 153.636 42.1325 154.18 42.6834C154.727 43.2343 154.997 43.8775 154.997 44.6104C154.997 45.3433 154.724 46.0146 154.18 46.5656C153.633 47.1165 152.997 47.3933 152.266 47.3933C151.536 47.3933 150.879 47.1165 150.324 46.5656C149.77 46.0146 149.492 45.3612 149.492 44.6104Z"></path>
</svg>